<svg width="25" height="25" viewBox="0 0 25 25" fill="none" xmlns="http://www.w3.org/2000/svg">
<path d="M12.5 0.290039C5.76981 0.290039 0.290039 5.76981 0.290039 12.5C0.290039 19.2302 5.76978 24.71 12.5 24.71C19.2303 24.71 24.71 19.2302 24.71 12.5C24.71 5.76981 19.2303 0.290039 12.5 0.290039ZM12.5 2.51004C18.0305 2.51004 22.49 6.9696 22.49 12.5C22.49 18.0304 18.0305 22.49 12.5 22.49C6.96957 22.49 2.51004 18.0304 2.51004 12.5C2.51004 6.9696 6.96957 2.51004 12.5 2.51004ZM12.5 3.99004C11.887 3.99004 11.39 4.48702 11.39 5.10004V12.5C11.39 13.1131 11.887 13.61 12.5 13.61H19.16C19.7731 13.61 20.27 13.1131 20.27 12.5C20.27 11.887 19.7731 11.39 19.16 11.39H13.61V5.10004C13.61 4.48702 13.1131 3.99004 12.5 3.99004Z" fill="#69A54D"/>
</svg>
