<svg width="27" height="27" viewBox="0 0 27 27" fill="none" xmlns="http://www.w3.org/2000/svg">
<path d="M16.7703 16.5374C19.6748 13.6329 19.6748 8.92369 16.7703 6.01917C13.8658 3.11464 9.15662 3.11464 6.2521 6.01917C3.34758 8.92369 3.34758 13.6329 6.2521 16.5374C9.15662 19.4419 13.8658 19.4419 16.7703 16.5374ZM17.6131 18.6417C13.8564 21.7623 8.2712 21.5617 4.7495 18.04C1.01511 14.3056 1.01511 8.25095 4.7495 4.51657C8.48388 0.782177 14.5385 0.782177 18.2729 4.51657C21.6813 7.92497 21.9788 13.2662 19.1655 17.0121L23.446 21.2926C23.884 21.7306 23.886 22.4388 23.4436 22.8812C23.0043 23.3205 22.2877 23.3163 21.855 22.8836L17.6131 18.6417Z" fill="white"/>
</svg>
