<svg width="29" height="27" viewBox="0 0 29 27" fill="none" xmlns="http://www.w3.org/2000/svg">
<path d="M2.94268 0.480018C1.79985 0.58734 0.88209 1.49704 0.859863 2.60158C1.10953 10.0879 3.47962 16.1156 7.78643 20.2425C12.0932 24.3694 18.2757 26.5331 25.9505 26.52C27.2099 26.5256 28.0778 25.4615 28.1011 24.3887C28.1139 22.6199 28.1276 20.8468 28.1399 19.08C28.1399 17.8457 27.0212 17.0447 25.9892 17.0359C24.3996 17.0421 22.1832 16.4644 20.3899 16.0188C20.0837 15.9448 19.7422 16.0395 19.518 16.2609L16.5633 19.1284C13.0039 16.991 11.3735 15.416 9.18143 11.9694L12.1167 9.13097C12.3543 8.90144 12.4545 8.53934 12.3686 8.22035C11.8853 6.41105 11.0886 4.05365 11.2158 2.39816C11.0899 1.10573 9.86352 0.473099 8.8908 0.480037C6.82034 0.480006 4.71516 0.480058 2.94268 0.480018H2.94268ZM2.95235 2.34002C4.94373 2.34002 6.94095 2.34002 8.92953 2.34002C9.22986 2.34572 9.22986 2.34572 9.37516 2.62096C9.31995 4.61639 9.97486 6.63226 10.4214 8.18158L7.34079 11.1847C7.04068 11.4761 6.97707 11.9807 7.19547 12.3375C9.84527 16.6328 11.8103 18.5387 16.2242 21.1144C16.5714 21.3162 17.0496 21.2579 17.3383 20.9787L20.448 17.9466C22.1346 18.3727 24.1582 18.9033 25.9989 18.8959C26.1323 18.921 26.2638 19.11 26.2798 19.1284L26.2411 24.3791C26.1764 24.5304 26.2799 24.6657 25.8923 24.66C18.5957 24.66 12.9652 22.6237 9.07485 18.8959C5.17392 15.158 2.95767 9.66476 2.71985 2.53377C2.71986 2.34573 2.71986 2.34573 2.95235 2.34002Z" fill="#69A54D"/>
</svg>
