<svg width="20" height="29" viewBox="0 0 20 29" fill="none" xmlns="http://www.w3.org/2000/svg">
<path d="M10 0C7.34784 0 4.8043 1.05357 2.92893 2.92893C1.05357 4.8043 0 7.34784 0 10C0 17.3 8.88 27.25 9.26 27.67C9.35379 27.7748 9.46862 27.8585 9.597 27.9159C9.72537 27.9733 9.86439 28.0029 10.005 28.0029C10.1456 28.0029 10.2846 27.9733 10.413 27.9159C10.5414 27.8585 10.6562 27.7748 10.75 27.67C11.12 27.25 20 17.3 20 10C20 8.68678 19.7413 7.38642 19.2388 6.17317C18.7362 4.95991 17.9997 3.85752 17.0711 2.92893C16.1425 2.00035 15.0401 1.26375 13.8268 0.761205C12.6136 0.258658 11.3132 0 10 0ZM10 25.46C7.89 22.93 2 15.39 2 10C2 7.87827 2.84285 5.84344 4.34315 4.34315C5.84344 2.84285 7.87827 2 10 2C12.1217 2 14.1566 2.84285 15.6569 4.34315C17.1571 5.84344 18 7.87827 18 10C18 15.39 12.11 22.93 10 25.46Z" fill="#69A54D"/>
<path d="M10 5C9.20888 5 8.43552 5.2346 7.77772 5.67412C7.11992 6.11365 6.60723 6.73836 6.30448 7.46926C6.00173 8.20017 5.92252 9.00444 6.07686 9.78036C6.2312 10.5563 6.61216 11.269 7.17157 11.8284C7.73098 12.3878 8.44372 12.7688 9.21964 12.9231C9.99556 13.0775 10.7998 12.9983 11.5307 12.6955C12.2616 12.3928 12.8864 11.8801 13.3259 11.2223C13.7654 10.5645 14 9.79112 14 9C14 7.93913 13.5786 6.92172 12.8284 6.17157C12.0783 5.42143 11.0609 5 10 5ZM10 11C9.60444 11 9.21776 10.8827 8.88886 10.6629C8.55996 10.4432 8.30362 10.1308 8.15224 9.76536C8.00087 9.39991 7.96126 8.99778 8.03843 8.60982C8.1156 8.22186 8.30608 7.86549 8.58579 7.58579C8.86549 7.30608 9.22186 7.1156 9.60982 7.03843C9.99778 6.96126 10.3999 7.00086 10.7654 7.15224C11.1308 7.30362 11.4432 7.55996 11.6629 7.88886C11.8827 8.21776 12 8.60444 12 9C12 9.53043 11.7893 10.0391 11.4142 10.4142C11.0391 10.7893 10.5304 11 10 11Z" fill="#69A54D"/>
</svg>
